<?xml version="1.0" encoding="UTF-8" standalone="no"?>
<!DOCTYPE svg PUBLIC "-//W3C//DTD SVG 1.1//EN"
 "http://www.w3.org/Graphics/SVG/1.1/DTD/svg11.dtd">
<!-- Generated by graphviz version 2.38.0 (20140413.2041)
 -->
<!-- Title: controllers_diagram Pages: 1 -->
<svg width="620pt" height="616pt"
 viewBox="0.00 0.00 619.73 616.14" xmlns="http://www.w3.org/2000/svg" xmlns:xlink="http://www.w3.org/1999/xlink">
<g id="graph0" class="graph" transform="scale(1 1) rotate(0) translate(274.276 297.637)">
<title>controllers_diagram</title>
<polygon fill="white" stroke="none" points="-274.276,318.5 -274.276,-297.637 345.45,-297.637 345.45,318.5 -274.276,318.5"/>
<!-- _diagram_info -->
<g id="node1" class="node"><title>_diagram_info</title>
<text text-anchor="start" x="142.55" y="255.9" font-family="Times,serif" font-size="13.00">Controllers diagram</text>
<text text-anchor="start" x="142.55" y="268.9" font-family="Times,serif" font-size="13.00">Date: Jun 17 2014 &#45; 09:28</text>
<text text-anchor="start" x="142.55" y="281.9" font-family="Times,serif" font-size="13.00">Migration version: 20140601194707</text>
<text text-anchor="start" x="142.55" y="294.9" font-family="Times,serif" font-size="13.00">Generated by RailRoady 1.1.1</text>
<text text-anchor="start" x="142.55" y="307.9" font-family="Times,serif" font-size="13.00">http://railroady.prestonlee.com</text>
</g>
<!-- ApplicationController -->
<g id="node2" class="node"><title>ApplicationController</title>
<path fill="none" stroke="black" d="M-52.875,51.722C-52.875,51.722 62.7666,51.722 62.7666,51.722 68.7666,51.722 74.7666,45.722 74.7666,39.722 74.7666,39.722 74.7666,-96.278 74.7666,-96.278 74.7666,-102.278 68.7666,-108.278 62.7666,-108.278 62.7666,-108.278 -52.875,-108.278 -52.875,-108.278 -58.875,-108.278 -64.875,-102.278 -64.875,-96.278 -64.875,-96.278 -64.875,39.722 -64.875,39.722 -64.875,45.722 -58.875,51.722 -52.875,51.722"/>
<text text-anchor="middle" x="4.94575" y="-93.078" font-family="Times,serif" font-size="14.00">ApplicationController</text>
<polyline fill="none" stroke="black" points="-64.875,-86.278 74.7666,-86.278 "/>
<text text-anchor="start" x="-56.875" y="-71.078" font-family="Times,serif" font-size="14.00">admin_panel</text>
<text text-anchor="start" x="-56.875" y="-57.078" font-family="Times,serif" font-size="14.00">connected?</text>
<text text-anchor="start" x="-56.875" y="-43.078" font-family="Times,serif" font-size="14.00">error404</text>
<text text-anchor="start" x="-56.875" y="-29.078" font-family="Times,serif" font-size="14.00">index</text>
<text text-anchor="start" x="-56.875" y="-15.078" font-family="Times,serif" font-size="14.00">rank_admin?</text>
<text text-anchor="start" x="-56.875" y="-1.07796" font-family="Times,serif" font-size="14.00">set_cache_buster</text>
<polyline fill="none" stroke="black" points="-64.875,5.72204 74.7666,5.72204 "/>
<polyline fill="none" stroke="black" points="-64.875,29.722 74.7666,29.722 "/>
<text text-anchor="start" x="-56.875" y="44.922" font-family="Times,serif" font-size="14.00">_layout</text>
</g>
<!-- MusicsController -->
<g id="node3" class="node"><title>MusicsController</title>
<path fill="none" stroke="black" d="M140.683,199.99C140.683,199.99 230.676,199.99 230.676,199.99 236.676,199.99 242.676,193.99 242.676,187.99 242.676,187.99 242.676,37.9902 242.676,37.9902 242.676,31.9902 236.676,25.9902 230.676,25.9902 230.676,25.9902 140.683,25.9902 140.683,25.9902 134.683,25.9902 128.683,31.9902 128.683,37.9902 128.683,37.9902 128.683,187.99 128.683,187.99 128.683,193.99 134.683,199.99 140.683,199.99"/>
<text text-anchor="middle" x="185.679" y="41.1902" font-family="Times,serif" font-size="14.00">MusicsController</text>
<polyline fill="none" stroke="black" points="128.683,47.9902 242.676,47.9902 "/>
<text text-anchor="start" x="136.683" y="63.1902" font-family="Times,serif" font-size="14.00">create</text>
<text text-anchor="start" x="136.683" y="77.1902" font-family="Times,serif" font-size="14.00">destroy</text>
<text text-anchor="start" x="136.683" y="91.1902" font-family="Times,serif" font-size="14.00">index</text>
<text text-anchor="start" x="136.683" y="105.19" font-family="Times,serif" font-size="14.00">new</text>
<text text-anchor="start" x="136.683" y="119.19" font-family="Times,serif" font-size="14.00">show</text>
<text text-anchor="start" x="136.683" y="133.19" font-family="Times,serif" font-size="14.00">update</text>
<polyline fill="none" stroke="black" points="128.683,139.99 242.676,139.99 "/>
<polyline fill="none" stroke="black" points="128.683,163.99 242.676,163.99 "/>
<text text-anchor="start" x="136.683" y="179.19" font-family="Times,serif" font-size="14.00">_layout</text>
<text text-anchor="start" x="136.683" y="193.19" font-family="Times,serif" font-size="14.00">music_params</text>
</g>
<!-- ApplicationController&#45;&gt;MusicsController -->
<g id="edge1" class="edge"><title>ApplicationController&#45;&gt;MusicsController</title>
<path fill="none" stroke="black" d="M74.8221,26.34C92.6026,40.238 111.5,55.0092 128.561,68.3444"/>
</g>
<!-- PnsqsController -->
<g id="node4" class="node"><title>PnsqsController</title>
<path fill="none" stroke="black" d="M-36.7787,258.742C-36.7787,258.742 45.4488,258.742 45.4488,258.742 51.4488,258.742 57.4488,252.742 57.4488,246.742 57.4488,246.742 57.4488,96.7415 57.4488,96.7415 57.4488,90.7415 51.4488,84.7415 45.4488,84.7415 45.4488,84.7415 -36.7787,84.7415 -36.7787,84.7415 -42.7787,84.7415 -48.7787,90.7415 -48.7787,96.7415 -48.7787,96.7415 -48.7787,246.742 -48.7787,246.742 -48.7787,252.742 -42.7787,258.742 -36.7787,258.742"/>
<text text-anchor="middle" x="4.33507" y="99.9415" font-family="Times,serif" font-size="14.00">PnsqsController</text>
<polyline fill="none" stroke="black" points="-48.7787,106.742 57.4488,106.742 "/>
<text text-anchor="start" x="-40.7787" y="121.942" font-family="Times,serif" font-size="14.00">create</text>
<text text-anchor="start" x="-40.7787" y="135.942" font-family="Times,serif" font-size="14.00">destroy</text>
<text text-anchor="start" x="-40.7787" y="149.942" font-family="Times,serif" font-size="14.00">edit</text>
<text text-anchor="start" x="-40.7787" y="163.942" font-family="Times,serif" font-size="14.00">index</text>
<text text-anchor="start" x="-40.7787" y="177.942" font-family="Times,serif" font-size="14.00">new</text>
<text text-anchor="start" x="-40.7787" y="191.942" font-family="Times,serif" font-size="14.00">show</text>
<polyline fill="none" stroke="black" points="-48.7787,198.742 57.4488,198.742 "/>
<polyline fill="none" stroke="black" points="-48.7787,222.742 57.4488,222.742 "/>
<text text-anchor="start" x="-40.7787" y="237.942" font-family="Times,serif" font-size="14.00">_layout</text>
<text text-anchor="start" x="-40.7787" y="251.942" font-family="Times,serif" font-size="14.00">pnsq_params</text>
</g>
<!-- ApplicationController&#45;&gt;PnsqsController -->
<g id="edge2" class="edge"><title>ApplicationController&#45;&gt;PnsqsController</title>
<path fill="none" stroke="black" d="M4.70088,51.9251C4.66803,62.685 4.63421,73.7635 4.60102,84.6351"/>
</g>
<!-- RelationsController -->
<g id="node5" class="node"><title>RelationsController</title>
<path fill="none" stroke="black" d="M-227.107,-109.414C-227.107,-109.414 -124.679,-109.414 -124.679,-109.414 -118.679,-109.414 -112.679,-115.414 -112.679,-121.414 -112.679,-121.414 -112.679,-215.414 -112.679,-215.414 -112.679,-221.414 -118.679,-227.414 -124.679,-227.414 -124.679,-227.414 -227.107,-227.414 -227.107,-227.414 -233.107,-227.414 -239.107,-221.414 -239.107,-215.414 -239.107,-215.414 -239.107,-121.414 -239.107,-121.414 -239.107,-115.414 -233.107,-109.414 -227.107,-109.414"/>
<text text-anchor="middle" x="-175.893" y="-212.214" font-family="Times,serif" font-size="14.00">RelationsController</text>
<polyline fill="none" stroke="black" points="-239.107,-205.414 -112.679,-205.414 "/>
<text text-anchor="start" x="-231.107" y="-190.214" font-family="Times,serif" font-size="14.00">create</text>
<text text-anchor="start" x="-231.107" y="-176.214" font-family="Times,serif" font-size="14.00">destroy</text>
<polyline fill="none" stroke="black" points="-239.107,-169.414 -112.679,-169.414 "/>
<polyline fill="none" stroke="black" points="-239.107,-145.414 -112.679,-145.414 "/>
<text text-anchor="start" x="-231.107" y="-130.214" font-family="Times,serif" font-size="14.00">_layout</text>
<text text-anchor="start" x="-231.107" y="-116.214" font-family="Times,serif" font-size="14.00">relation_params</text>
</g>
<!-- ApplicationController&#45;&gt;RelationsController -->
<g id="edge3" class="edge"><title>ApplicationController&#45;&gt;RelationsController</title>
<path fill="none" stroke="black" d="M-64.9714,-82.4583C-80.6751,-94.6275 -97.2498,-107.472 -112.662,-119.415"/>
</g>
<!-- RequestInvitationsController -->
<g id="node6" class="node"><title>RequestInvitationsController</title>
<path fill="none" stroke="black" d="M108.974,-94.5921C108.974,-94.5921 263.505,-94.5921 263.505,-94.5921 269.505,-94.5921 275.505,-100.592 275.505,-106.592 275.505,-106.592 275.505,-228.592 275.505,-228.592 275.505,-234.592 269.505,-240.592 263.505,-240.592 263.505,-240.592 108.974,-240.592 108.974,-240.592 102.974,-240.592 96.9736,-234.592 96.9736,-228.592 96.9736,-228.592 96.9736,-106.592 96.9736,-106.592 96.9736,-100.592 102.974,-94.5921 108.974,-94.5921"/>
<text text-anchor="middle" x="186.239" y="-225.392" font-family="Times,serif" font-size="14.00">RequestInvitationsController</text>
<polyline fill="none" stroke="black" points="96.9736,-218.592 275.505,-218.592 "/>
<text text-anchor="start" x="104.974" y="-203.392" font-family="Times,serif" font-size="14.00">create</text>
<text text-anchor="start" x="104.974" y="-189.392" font-family="Times,serif" font-size="14.00">destroy</text>
<text text-anchor="start" x="104.974" y="-175.392" font-family="Times,serif" font-size="14.00">index</text>
<text text-anchor="start" x="104.974" y="-161.392" font-family="Times,serif" font-size="14.00">new</text>
<polyline fill="none" stroke="black" points="96.9736,-154.592 275.505,-154.592 "/>
<polyline fill="none" stroke="black" points="96.9736,-130.592 275.505,-130.592 "/>
<text text-anchor="start" x="104.974" y="-115.392" font-family="Times,serif" font-size="14.00">_layout</text>
<text text-anchor="start" x="104.974" y="-101.392" font-family="Times,serif" font-size="14.00">request_invitation_params</text>
</g>
<!-- ApplicationController&#45;&gt;RequestInvitationsController -->
<g id="edge4" class="edge"><title>ApplicationController&#45;&gt;RequestInvitationsController</title>
<path fill="none" stroke="black" d="M74.7792,-81.9411C81.9611,-87.46 89.3272,-93.1205 96.6838,-98.7736"/>
</g>
<!-- SessionsController -->
<g id="node7" class="node"><title>SessionsController</title>
<path fill="none" stroke="black" d="M-43.0075,-161.137C-43.0075,-161.137 54.7718,-161.137 54.7718,-161.137 60.7718,-161.137 66.7718,-167.137 66.7718,-173.137 66.7718,-173.137 66.7718,-281.137 66.7718,-281.137 66.7718,-287.137 60.7718,-293.137 54.7718,-293.137 54.7718,-293.137 -43.0075,-293.137 -43.0075,-293.137 -49.0075,-293.137 -55.0075,-287.137 -55.0075,-281.137 -55.0075,-281.137 -55.0075,-173.137 -55.0075,-173.137 -55.0075,-167.137 -49.0075,-161.137 -43.0075,-161.137"/>
<text text-anchor="middle" x="5.88213" y="-277.937" font-family="Times,serif" font-size="14.00">SessionsController</text>
<polyline fill="none" stroke="black" points="-55.0075,-271.137 66.7718,-271.137 "/>
<text text-anchor="start" x="-47.0075" y="-255.937" font-family="Times,serif" font-size="14.00">create</text>
<text text-anchor="start" x="-47.0075" y="-241.937" font-family="Times,serif" font-size="14.00">destroy</text>
<text text-anchor="start" x="-47.0075" y="-227.937" font-family="Times,serif" font-size="14.00">index</text>
<text text-anchor="start" x="-47.0075" y="-213.937" font-family="Times,serif" font-size="14.00">new</text>
<polyline fill="none" stroke="black" points="-55.0075,-207.137 66.7718,-207.137 "/>
<polyline fill="none" stroke="black" points="-55.0075,-183.137 66.7718,-183.137 "/>
<text text-anchor="start" x="-47.0075" y="-167.937" font-family="Times,serif" font-size="14.00">_layout</text>
</g>
<!-- ApplicationController&#45;&gt;SessionsController -->
<g id="edge5" class="edge"><title>ApplicationController&#45;&gt;SessionsController</title>
<path fill="none" stroke="black" d="M5.32256,-108.302C5.40489,-125.786 5.49114,-144.103 5.57059,-160.975"/>
</g>
<!-- UsersController -->
<g id="node8" class="node"><title>UsersController</title>
<path fill="none" stroke="black" d="M-258.276,269.315C-258.276,269.315 -94.4203,269.315 -94.4203,269.315 -88.4203,269.315 -82.4203,263.315 -82.4203,257.315 -82.4203,257.315 -82.4203,-32.6847 -82.4203,-32.6847 -82.4203,-38.6847 -88.4203,-44.6847 -94.4203,-44.6847 -94.4203,-44.6847 -258.276,-44.6847 -258.276,-44.6847 -264.276,-44.6847 -270.276,-38.6847 -270.276,-32.6847 -270.276,-32.6847 -270.276,257.315 -270.276,257.315 -270.276,263.315 -264.276,269.315 -258.276,269.315"/>
<text text-anchor="middle" x="-176.348" y="-29.4847" font-family="Times,serif" font-size="14.00">UsersController</text>
<polyline fill="none" stroke="black" points="-270.276,-22.6847 -82.4203,-22.6847 "/>
<text text-anchor="start" x="-262.276" y="-7.48474" font-family="Times,serif" font-size="14.00">change_password_in_holder</text>
<text text-anchor="start" x="-262.276" y="6.51526" font-family="Times,serif" font-size="14.00">check_new_mail</text>
<text text-anchor="start" x="-262.276" y="20.5153" font-family="Times,serif" font-size="14.00">check_new_nick</text>
<text text-anchor="start" x="-262.276" y="34.5153" font-family="Times,serif" font-size="14.00">create</text>
<text text-anchor="start" x="-262.276" y="48.5153" font-family="Times,serif" font-size="14.00">destroy</text>
<text text-anchor="start" x="-262.276" y="62.5153" font-family="Times,serif" font-size="14.00">edit</text>
<text text-anchor="start" x="-262.276" y="76.5153" font-family="Times,serif" font-size="14.00">index</text>
<text text-anchor="start" x="-262.276" y="90.5153" font-family="Times,serif" font-size="14.00">new</text>
<text text-anchor="start" x="-262.276" y="104.515" font-family="Times,serif" font-size="14.00">new_personal_pnsq_in_holder</text>
<text text-anchor="start" x="-262.276" y="118.515" font-family="Times,serif" font-size="14.00">personal_pnsqs_in_holder</text>
<text text-anchor="start" x="-262.276" y="132.515" font-family="Times,serif" font-size="14.00">relations_in_holder</text>
<text text-anchor="start" x="-262.276" y="146.515" font-family="Times,serif" font-size="14.00">search</text>
<text text-anchor="start" x="-262.276" y="160.515" font-family="Times,serif" font-size="14.00">show</text>
<text text-anchor="start" x="-262.276" y="174.515" font-family="Times,serif" font-size="14.00">update</text>
<text text-anchor="start" x="-262.276" y="188.515" font-family="Times,serif" font-size="14.00">update_password</text>
<text text-anchor="start" x="-262.276" y="202.515" font-family="Times,serif" font-size="14.00">user_next_step</text>
<polyline fill="none" stroke="black" points="-270.276,209.315 -82.4203,209.315 "/>
<polyline fill="none" stroke="black" points="-270.276,233.315 -82.4203,233.315 "/>
<text text-anchor="start" x="-262.276" y="248.515" font-family="Times,serif" font-size="14.00">_layout</text>
<text text-anchor="start" x="-262.276" y="262.515" font-family="Times,serif" font-size="14.00">user_params</text>
</g>
<!-- ApplicationController&#45;&gt;UsersController -->
<g id="edge6" class="edge"><title>ApplicationController&#45;&gt;UsersController</title>
<path fill="none" stroke="black" d="M-64.8878,25.8779C-70.5735,30.2872 -76.3746,34.786 -82.1951,39.2997"/>
</g>
</g>
</svg>
