<?xml version="1.0" encoding="UTF-8" standalone="no"?>
<!DOCTYPE svg PUBLIC "-//W3C//DTD SVG 1.1//EN"
 "http://www.w3.org/Graphics/SVG/1.1/DTD/svg11.dtd">
<!-- Generated by graphviz version 2.38.0 (20140413.2041)
 -->
<!-- Title: models_diagram Pages: 1 -->
<svg width="973pt" height="1038pt"
 viewBox="0.00 0.00 972.58 1038.00" xmlns="http://www.w3.org/2000/svg" xmlns:xlink="http://www.w3.org/1999/xlink">
<g id="graph0" class="graph" transform="scale(1 1) rotate(0) translate(4 1034)">
<title>models_diagram</title>
<polygon fill="white" stroke="none" points="-4,4 -4,-1034 968.576,-1034 968.576,4 -4,4"/>
<!-- _diagram_info -->
<g id="node1" class="node"><title>_diagram_info</title>
<text text-anchor="start" x="195.78" y="-1015.6" font-family="Times,serif" font-size="13.00">Models diagram</text>
<text text-anchor="start" x="195.78" y="-1002.6" font-family="Times,serif" font-size="13.00">Date: Jun 17 2014 &#45; 09:28</text>
<text text-anchor="start" x="195.78" y="-989.6" font-family="Times,serif" font-size="13.00">Migration version: 20140601194707</text>
<text text-anchor="start" x="195.78" y="-976.6" font-family="Times,serif" font-size="13.00">Generated by RailRoady 1.1.1</text>
<text text-anchor="start" x="195.78" y="-963.6" font-family="Times,serif" font-size="13.00">http://railroady.prestonlee.com</text>
</g>
<!-- Music -->
<g id="node2" class="node"><title>Music</title>
<path fill="none" stroke="black" d="M12,-123.5C12,-123.5 182.459,-123.5 182.459,-123.5 188.459,-123.5 194.459,-129.5 194.459,-135.5 194.459,-135.5 194.459,-407.5 194.459,-407.5 194.459,-413.5 188.459,-419.5 182.459,-419.5 182.459,-419.5 12,-419.5 12,-419.5 6,-419.5 0,-413.5 0,-407.5 0,-407.5 0,-135.5 0,-135.5 0,-129.5 6,-123.5 12,-123.5"/>
<text text-anchor="middle" x="97.2295" y="-404.3" font-family="Times,serif" font-size="14.00">Music</text>
<polyline fill="none" stroke="black" points="0,-397.5 194.459,-397.5 "/>
<text text-anchor="start" x="8" y="-382.3" font-family="Times,serif" font-size="14.00">id :integer</text>
<text text-anchor="start" x="8" y="-368.3" font-family="Times,serif" font-size="14.00">title :text</text>
<text text-anchor="start" x="8" y="-354.3" font-family="Times,serif" font-size="14.00">artist :text</text>
<text text-anchor="start" x="8" y="-340.3" font-family="Times,serif" font-size="14.00">album :text</text>
<text text-anchor="start" x="8" y="-326.3" font-family="Times,serif" font-size="14.00">created_at :datetime</text>
<text text-anchor="start" x="8" y="-312.3" font-family="Times,serif" font-size="14.00">updated_at :datetime</text>
<text text-anchor="start" x="8" y="-298.3" font-family="Times,serif" font-size="14.00">genre :string</text>
<text text-anchor="start" x="8" y="-284.3" font-family="Times,serif" font-size="14.00">cover_file_name :string</text>
<text text-anchor="start" x="8" y="-270.3" font-family="Times,serif" font-size="14.00">cover_content_type :string</text>
<text text-anchor="start" x="8" y="-256.3" font-family="Times,serif" font-size="14.00">cover_file_size :integer</text>
<text text-anchor="start" x="8" y="-242.3" font-family="Times,serif" font-size="14.00">cover_updated_at :datetime</text>
<text text-anchor="start" x="8" y="-228.3" font-family="Times,serif" font-size="14.00">song_file_name :string</text>
<text text-anchor="start" x="8" y="-214.3" font-family="Times,serif" font-size="14.00">song_content_type :string</text>
<text text-anchor="start" x="8" y="-200.3" font-family="Times,serif" font-size="14.00">song_file_size :integer</text>
<text text-anchor="start" x="8" y="-186.3" font-family="Times,serif" font-size="14.00">song_updated_at :datetime</text>
<text text-anchor="start" x="8" y="-172.3" font-family="Times,serif" font-size="14.00">ogg_song_file_name :string</text>
<text text-anchor="start" x="8" y="-158.3" font-family="Times,serif" font-size="14.00">ogg_song_content_type :string</text>
<text text-anchor="start" x="8" y="-144.3" font-family="Times,serif" font-size="14.00">ogg_song_file_size :integer</text>
<text text-anchor="start" x="8" y="-130.3" font-family="Times,serif" font-size="14.00">ogg_song_updated_at :datetime</text>
</g>
<!-- Paperclip -->
<g id="node3" class="node"><title>Paperclip</title>
<polygon fill="none" stroke="black" stroke-dasharray="1,5" points="662.599,-1011.5 593.86,-1011.5 593.86,-975.5 662.599,-975.5 662.599,-1011.5"/>
<text text-anchor="middle" x="628.229" y="-989.3" font-family="Times,serif" font-size="14.00">Paperclip</text>
</g>
<!-- Playlist -->
<g id="node4" class="node"><title>Playlist</title>
<path fill="none" stroke="black" d="M19.7241,-631.5C19.7241,-631.5 128.735,-631.5 128.735,-631.5 134.735,-631.5 140.735,-637.5 140.735,-643.5 140.735,-643.5 140.735,-733.5 140.735,-733.5 140.735,-739.5 134.735,-745.5 128.735,-745.5 128.735,-745.5 19.7241,-745.5 19.7241,-745.5 13.7241,-745.5 7.72412,-739.5 7.72412,-733.5 7.72412,-733.5 7.72412,-643.5 7.72412,-643.5 7.72412,-637.5 13.7241,-631.5 19.7241,-631.5"/>
<text text-anchor="middle" x="74.2295" y="-730.3" font-family="Times,serif" font-size="14.00">Playlist</text>
<polyline fill="none" stroke="black" points="7.72412,-723.5 140.735,-723.5 "/>
<text text-anchor="start" x="15.7241" y="-708.3" font-family="Times,serif" font-size="14.00">id :integer</text>
<text text-anchor="start" x="15.7241" y="-694.3" font-family="Times,serif" font-size="14.00">name :string</text>
<text text-anchor="start" x="15.7241" y="-680.3" font-family="Times,serif" font-size="14.00">genre :string</text>
<text text-anchor="start" x="15.7241" y="-666.3" font-family="Times,serif" font-size="14.00">order :string</text>
<text text-anchor="start" x="15.7241" y="-652.3" font-family="Times,serif" font-size="14.00">created_at :datetime</text>
<text text-anchor="start" x="15.7241" y="-638.3" font-family="Times,serif" font-size="14.00">updated_at :datetime</text>
</g>
<!-- Playlist&#45;&gt;Music -->
<g id="edge2" class="edge"><title>Playlist&#45;&gt;Music</title>
<path fill="none" stroke="#3e02a0" d="M77.8069,-622.952C80.6659,-571.364 84.7962,-496.841 88.5135,-429.767"/>
<ellipse fill="none" stroke="#3e02a0" cx="77.5767" cy="-627.105" rx="4" ry="4"/>
<polygon fill="#3e02a0" stroke="#3e02a0" points="88.529,-429.485 93.5756,-419.75 88.8057,-424.493 89.0825,-419.501 89.0825,-419.501 89.0825,-419.501 88.8057,-424.493 84.5894,-419.252 88.529,-429.485 88.529,-429.485"/>
</g>
<!-- Pnsq -->
<g id="node5" class="node"><title>Pnsq</title>
<path fill="none" stroke="black" d="M248.672,-179.5C248.672,-179.5 395.787,-179.5 395.787,-179.5 401.787,-179.5 407.787,-185.5 407.787,-191.5 407.787,-191.5 407.787,-351.5 407.787,-351.5 407.787,-357.5 401.787,-363.5 395.787,-363.5 395.787,-363.5 248.672,-363.5 248.672,-363.5 242.672,-363.5 236.672,-357.5 236.672,-351.5 236.672,-351.5 236.672,-191.5 236.672,-191.5 236.672,-185.5 242.672,-179.5 248.672,-179.5"/>
<text text-anchor="middle" x="322.229" y="-348.3" font-family="Times,serif" font-size="14.00">Pnsq</text>
<polyline fill="none" stroke="black" points="236.672,-341.5 407.787,-341.5 "/>
<text text-anchor="start" x="244.672" y="-326.3" font-family="Times,serif" font-size="14.00">id :integer</text>
<text text-anchor="start" x="244.672" y="-312.3" font-family="Times,serif" font-size="14.00">text :text</text>
<text text-anchor="start" x="244.672" y="-298.3" font-family="Times,serif" font-size="14.00">created_at :datetime</text>
<text text-anchor="start" x="244.672" y="-284.3" font-family="Times,serif" font-size="14.00">updated_at :datetime</text>
<text text-anchor="start" x="244.672" y="-270.3" font-family="Times,serif" font-size="14.00">audio_file_name :string</text>
<text text-anchor="start" x="244.672" y="-256.3" font-family="Times,serif" font-size="14.00">audio_content_type :string</text>
<text text-anchor="start" x="244.672" y="-242.3" font-family="Times,serif" font-size="14.00">audio_file_size :integer</text>
<text text-anchor="start" x="244.672" y="-228.3" font-family="Times,serif" font-size="14.00">audio_updated_at :datetime</text>
<text text-anchor="start" x="244.672" y="-214.3" font-family="Times,serif" font-size="14.00">user_id :integer</text>
<text text-anchor="start" x="244.672" y="-200.3" font-family="Times,serif" font-size="14.00">taste :string</text>
<text text-anchor="start" x="244.672" y="-186.3" font-family="Times,serif" font-size="14.00">to_user_id :integer</text>
</g>
<!-- Tag -->
<g id="node9" class="node"><title>Tag</title>
<path fill="none" stroke="black" d="M495.724,-0.5C495.724,-0.5 604.735,-0.5 604.735,-0.5 610.735,-0.5 616.735,-6.5 616.735,-12.5 616.735,-12.5 616.735,-74.5 616.735,-74.5 616.735,-80.5 610.735,-86.5 604.735,-86.5 604.735,-86.5 495.724,-86.5 495.724,-86.5 489.724,-86.5 483.724,-80.5 483.724,-74.5 483.724,-74.5 483.724,-12.5 483.724,-12.5 483.724,-6.5 489.724,-0.5 495.724,-0.5"/>
<text text-anchor="middle" x="550.229" y="-71.3" font-family="Times,serif" font-size="14.00">Tag</text>
<polyline fill="none" stroke="black" points="483.724,-64.5 616.735,-64.5 "/>
<text text-anchor="start" x="491.724" y="-49.3" font-family="Times,serif" font-size="14.00">id :integer</text>
<text text-anchor="start" x="491.724" y="-35.3" font-family="Times,serif" font-size="14.00">name :string</text>
<text text-anchor="start" x="491.724" y="-21.3" font-family="Times,serif" font-size="14.00">created_at :datetime</text>
<text text-anchor="start" x="491.724" y="-7.3" font-family="Times,serif" font-size="14.00">updated_at :datetime</text>
</g>
<!-- Pnsq&#45;&gt;Tag -->
<g id="edge4" class="edge"><title>Pnsq&#45;&gt;Tag</title>
<path fill="none" stroke="#e8ee7a" d="M415.339,-178.207C444.549,-149.253 475.654,-118.422 500.624,-93.6701"/>
<polygon fill="#e8ee7a" stroke="#e8ee7a" points="415.204,-178.341 404.934,-182.185 411.653,-181.861 408.102,-185.381 408.102,-185.381 408.102,-185.381 411.653,-181.861 411.27,-188.577 415.204,-178.341 415.204,-178.341"/>
<polygon fill="#e8ee7a" stroke="#e8ee7a" points="500.73,-93.5656 511,-89.7217 504.281,-90.0456 507.832,-86.5257 507.832,-86.5257 507.832,-86.5257 504.281,-90.0456 504.664,-83.3297 500.73,-93.5656 500.73,-93.5656"/>
</g>
<!-- Relation -->
<g id="node6" class="node"><title>Relation</title>
<path fill="none" stroke="black" d="M522.614,-221.5C522.614,-221.5 651.845,-221.5 651.845,-221.5 657.845,-221.5 663.845,-227.5 663.845,-233.5 663.845,-233.5 663.845,-309.5 663.845,-309.5 663.845,-315.5 657.845,-321.5 651.845,-321.5 651.845,-321.5 522.614,-321.5 522.614,-321.5 516.614,-321.5 510.614,-315.5 510.614,-309.5 510.614,-309.5 510.614,-233.5 510.614,-233.5 510.614,-227.5 516.614,-221.5 522.614,-221.5"/>
<text text-anchor="middle" x="587.229" y="-306.3" font-family="Times,serif" font-size="14.00">Relation</text>
<polyline fill="none" stroke="black" points="510.614,-299.5 663.845,-299.5 "/>
<text text-anchor="start" x="518.614" y="-284.3" font-family="Times,serif" font-size="14.00">id :integer</text>
<text text-anchor="start" x="518.614" y="-270.3" font-family="Times,serif" font-size="14.00">user_id :integer</text>
<text text-anchor="start" x="518.614" y="-256.3" font-family="Times,serif" font-size="14.00">user_relation_id :integer</text>
<text text-anchor="start" x="518.614" y="-242.3" font-family="Times,serif" font-size="14.00">created_at :datetime</text>
<text text-anchor="start" x="518.614" y="-228.3" font-family="Times,serif" font-size="14.00">updated_at :datetime</text>
</g>
<!-- RequestInvitation -->
<g id="node7" class="node"><title>RequestInvitation</title>
<path fill="none" stroke="black" d="M439.724,-631.5C439.724,-631.5 548.735,-631.5 548.735,-631.5 554.735,-631.5 560.735,-637.5 560.735,-643.5 560.735,-643.5 560.735,-733.5 560.735,-733.5 560.735,-739.5 554.735,-745.5 548.735,-745.5 548.735,-745.5 439.724,-745.5 439.724,-745.5 433.724,-745.5 427.724,-739.5 427.724,-733.5 427.724,-733.5 427.724,-643.5 427.724,-643.5 427.724,-637.5 433.724,-631.5 439.724,-631.5"/>
<text text-anchor="middle" x="494.229" y="-730.3" font-family="Times,serif" font-size="14.00">RequestInvitation</text>
<polyline fill="none" stroke="black" points="427.724,-723.5 560.735,-723.5 "/>
<text text-anchor="start" x="435.724" y="-708.3" font-family="Times,serif" font-size="14.00">id :integer</text>
<text text-anchor="start" x="435.724" y="-694.3" font-family="Times,serif" font-size="14.00">email :string</text>
<text text-anchor="start" x="435.724" y="-680.3" font-family="Times,serif" font-size="14.00">created_at :datetime</text>
<text text-anchor="start" x="435.724" y="-666.3" font-family="Times,serif" font-size="14.00">updated_at :datetime</text>
<text text-anchor="start" x="435.724" y="-652.3" font-family="Times,serif" font-size="14.00">token :string</text>
<text text-anchor="start" x="435.724" y="-638.3" font-family="Times,serif" font-size="14.00">checked :boolean</text>
</g>
<!-- Session -->
<g id="node8" class="node"><title>Session</title>
<path fill="none" stroke="black" d="M590.724,-638.5C590.724,-638.5 699.735,-638.5 699.735,-638.5 705.735,-638.5 711.735,-644.5 711.735,-650.5 711.735,-650.5 711.735,-726.5 711.735,-726.5 711.735,-732.5 705.735,-738.5 699.735,-738.5 699.735,-738.5 590.724,-738.5 590.724,-738.5 584.724,-738.5 578.724,-732.5 578.724,-726.5 578.724,-726.5 578.724,-650.5 578.724,-650.5 578.724,-644.5 584.724,-638.5 590.724,-638.5"/>
<text text-anchor="middle" x="645.229" y="-723.3" font-family="Times,serif" font-size="14.00">Session</text>
<polyline fill="none" stroke="black" points="578.724,-716.5 711.735,-716.5 "/>
<text text-anchor="start" x="586.724" y="-701.3" font-family="Times,serif" font-size="14.00">id :integer</text>
<text text-anchor="start" x="586.724" y="-687.3" font-family="Times,serif" font-size="14.00">session_id :string</text>
<text text-anchor="start" x="586.724" y="-673.3" font-family="Times,serif" font-size="14.00">data :text</text>
<text text-anchor="start" x="586.724" y="-659.3" font-family="Times,serif" font-size="14.00">created_at :datetime</text>
<text text-anchor="start" x="586.724" y="-645.3" font-family="Times,serif" font-size="14.00">updated_at :datetime</text>
</g>
<!-- User -->
<g id="node10" class="node"><title>User</title>
<path fill="none" stroke="black" d="M247.127,-456.5C247.127,-456.5 397.332,-456.5 397.332,-456.5 403.332,-456.5 409.332,-462.5 409.332,-468.5 409.332,-468.5 409.332,-908.5 409.332,-908.5 409.332,-914.5 403.332,-920.5 397.332,-920.5 397.332,-920.5 247.127,-920.5 247.127,-920.5 241.127,-920.5 235.127,-914.5 235.127,-908.5 235.127,-908.5 235.127,-468.5 235.127,-468.5 235.127,-462.5 241.127,-456.5 247.127,-456.5"/>
<text text-anchor="middle" x="322.229" y="-905.3" font-family="Times,serif" font-size="14.00">User</text>
<polyline fill="none" stroke="black" points="235.127,-898.5 409.332,-898.5 "/>
<text text-anchor="start" x="243.127" y="-883.3" font-family="Times,serif" font-size="14.00">id :integer</text>
<text text-anchor="start" x="243.127" y="-869.3" font-family="Times,serif" font-size="14.00">email :string</text>
<text text-anchor="start" x="243.127" y="-855.3" font-family="Times,serif" font-size="14.00">password :string</text>
<text text-anchor="start" x="243.127" y="-841.3" font-family="Times,serif" font-size="14.00">nick :string</text>
<text text-anchor="start" x="243.127" y="-827.3" font-family="Times,serif" font-size="14.00">created_at :datetime</text>
<text text-anchor="start" x="243.127" y="-813.3" font-family="Times,serif" font-size="14.00">updated_at :datetime</text>
<text text-anchor="start" x="243.127" y="-799.3" font-family="Times,serif" font-size="14.00">rank :string</text>
<text text-anchor="start" x="243.127" y="-785.3" font-family="Times,serif" font-size="14.00">remember_token :string</text>
<text text-anchor="start" x="243.127" y="-771.3" font-family="Times,serif" font-size="14.00">mt_rock :boolean</text>
<text text-anchor="start" x="243.127" y="-757.3" font-family="Times,serif" font-size="14.00">mt_pop :boolean</text>
<text text-anchor="start" x="243.127" y="-743.3" font-family="Times,serif" font-size="14.00">mt_electronic :boolean</text>
<text text-anchor="start" x="243.127" y="-729.3" font-family="Times,serif" font-size="14.00">mt_instrumental :boolean</text>
<text text-anchor="start" x="243.127" y="-715.3" font-family="Times,serif" font-size="14.00">mt_jazz :boolean</text>
<text text-anchor="start" x="243.127" y="-701.3" font-family="Times,serif" font-size="14.00">name :string</text>
<text text-anchor="start" x="243.127" y="-687.3" font-family="Times,serif" font-size="14.00">surname :string</text>
<text text-anchor="start" x="243.127" y="-673.3" font-family="Times,serif" font-size="14.00">avatar_file_name :string</text>
<text text-anchor="start" x="243.127" y="-659.3" font-family="Times,serif" font-size="14.00">avatar_content_type :string</text>
<text text-anchor="start" x="243.127" y="-645.3" font-family="Times,serif" font-size="14.00">avatar_file_size :integer</text>
<text text-anchor="start" x="243.127" y="-631.3" font-family="Times,serif" font-size="14.00">avatar_updated_at :datetime</text>
<text text-anchor="start" x="243.127" y="-617.3" font-family="Times,serif" font-size="14.00">mt_country :boolean</text>
<text text-anchor="start" x="243.127" y="-603.3" font-family="Times,serif" font-size="14.00">mt_hiphop :boolean</text>
<text text-anchor="start" x="243.127" y="-589.3" font-family="Times,serif" font-size="14.00">followers_count :integer</text>
<text text-anchor="start" x="243.127" y="-575.3" font-family="Times,serif" font-size="14.00">following_count :integer</text>
<text text-anchor="start" x="243.127" y="-561.3" font-family="Times,serif" font-size="14.00">bio :text</text>
<text text-anchor="start" x="243.127" y="-547.3" font-family="Times,serif" font-size="14.00">mt_classical :boolean</text>
<text text-anchor="start" x="243.127" y="-533.3" font-family="Times,serif" font-size="14.00">mt_dance :boolean</text>
<text text-anchor="start" x="243.127" y="-519.3" font-family="Times,serif" font-size="14.00">mt_heavy :boolean</text>
<text text-anchor="start" x="243.127" y="-505.3" font-family="Times,serif" font-size="14.00">mt_reggae :boolean</text>
<text text-anchor="start" x="243.127" y="-491.3" font-family="Times,serif" font-size="14.00">mt_funk :boolean</text>
<text text-anchor="start" x="243.127" y="-477.3" font-family="Times,serif" font-size="14.00">password_salt :string</text>
<text text-anchor="start" x="243.127" y="-463.3" font-family="Times,serif" font-size="14.00">notifications_count :integer</text>
</g>
<!-- User&#45;&gt;Pnsq -->
<g id="edge10" class="edge"><title>User&#45;&gt;Pnsq</title>
<path fill="none" stroke="#332bf5" d="M322.229,-448.294C322.229,-422.223 322.229,-396.837 322.229,-373.833"/>
<ellipse fill="none" stroke="#332bf5" cx="322.23" cy="-452.337" rx="4" ry="4"/>
<polygon fill="#332bf5" stroke="#332bf5" points="322.23,-373.782 326.729,-363.782 322.23,-368.782 322.229,-363.782 322.229,-363.782 322.229,-363.782 322.23,-368.782 317.729,-363.782 322.23,-373.782 322.23,-373.782"/>
</g>
<!-- User&#45;&gt;Relation -->
<g id="edge11" class="edge"><title>User&#45;&gt;Relation</title>
<path fill="none" stroke="#ef0cdb" d="M413.793,-463.09C415.257,-460.701 416.736,-458.337 418.229,-456 448.17,-409.154 490.578,-363.149 525.421,-328.921"/>
<ellipse fill="none" stroke="#ef0cdb" cx="411.506" cy="-466.897" rx="4.00002" ry="4.00002"/>
<polygon fill="#ef0cdb" stroke="#ef0cdb" points="525.57,-328.776 535.874,-325.024 529.152,-325.288 532.734,-321.8 532.734,-321.8 532.734,-321.8 529.152,-325.288 529.595,-318.576 525.57,-328.776 525.57,-328.776"/>
</g>
<!-- UserNextStep -->
<g id="node11" class="node"><title>UserNextStep</title>
<path fill="none" stroke="black" d="M817.883,-645.5C817.883,-645.5 952.576,-645.5 952.576,-645.5 958.576,-645.5 964.576,-651.5 964.576,-657.5 964.576,-657.5 964.576,-719.5 964.576,-719.5 964.576,-725.5 958.576,-731.5 952.576,-731.5 952.576,-731.5 817.883,-731.5 817.883,-731.5 811.883,-731.5 805.883,-725.5 805.883,-719.5 805.883,-719.5 805.883,-657.5 805.883,-657.5 805.883,-651.5 811.883,-645.5 817.883,-645.5"/>
<text text-anchor="middle" x="885.229" y="-716.3" font-family="Times,serif" font-size="14.00">UserNextStep</text>
<polyline fill="none" stroke="black" points="805.883,-709.5 964.576,-709.5 "/>
<text text-anchor="start" x="813.883" y="-694.3" font-family="Times,serif" font-size="14.00">id :integer</text>
<text text-anchor="start" x="813.883" y="-680.3" font-family="Times,serif" font-size="14.00">user_id :integer</text>
<text text-anchor="start" x="813.883" y="-666.3" font-family="Times,serif" font-size="14.00">dashboard_help :boolean</text>
<text text-anchor="start" x="813.883" y="-652.3" font-family="Times,serif" font-size="14.00">user_show_help :boolean</text>
</g>
<!-- ActiveRecord::Base -->
<g id="node12" class="node"><title>ActiveRecord::Base</title>
<ellipse fill="none" stroke="black" cx="494.229" cy="-993.5" rx="81.1422" ry="18"/>
<text text-anchor="middle" x="494.229" y="-989.3" font-family="Times,serif" font-size="14.00">ActiveRecord::Base</text>
</g>
<!-- ActiveRecord::Base&#45;&gt;Music -->
<g id="edge1" class="edge"><title>ActiveRecord::Base&#45;&gt;Music</title>
<path fill="none" stroke="black" d="M459.798,-977.124C443.011,-970.132 422.359,-962.265 403.229,-957 356.312,-944.088 220.132,-956.852 187.229,-921 152.185,-882.814 159.523,-506.99 150.229,-456 148.059,-444.093 145.43,-431.851 142.518,-419.611"/>
</g>
<!-- ActiveRecord::Base&#45;&gt;Playlist -->
<g id="edge3" class="edge"><title>ActiveRecord::Base&#45;&gt;Playlist</title>
<path fill="none" stroke="black" d="M460.275,-977.126C443.423,-970.048 422.578,-962.107 403.229,-957 295.54,-928.577 241.187,-991.826 155.229,-921 103.061,-878.015 84.4458,-799.319 77.8307,-745.732"/>
</g>
<!-- ActiveRecord::Base&#45;&gt;Pnsq -->
<g id="edge5" class="edge"><title>ActiveRecord::Base&#45;&gt;Pnsq</title>
<path fill="none" stroke="black" d="M459.281,-977.246C442.554,-970.365 422.1,-962.555 403.229,-957 326.22,-934.329 277.023,-983.165 226.229,-921 160.848,-840.981 201.566,-556.347 226.229,-456 233.996,-424.402 248.268,-392.212 263.477,-363.798"/>
</g>
<!-- ActiveRecord::Base&#45;&gt;Relation -->
<g id="edge6" class="edge"><title>ActiveRecord::Base&#45;&gt;Relation</title>
<path fill="none" stroke="black" d="M530.638,-977.208C547.146,-970.557 567.012,-962.944 585.229,-957 644.672,-937.607 683.091,-970.548 721.229,-921 784.259,-839.116 753.28,-554.237 721.229,-456 704.528,-404.81 667.54,-356.039 636.648,-321.661"/>
</g>
<!-- ActiveRecord::Base&#45;&gt;RequestInvitation -->
<g id="edge7" class="edge"><title>ActiveRecord::Base&#45;&gt;RequestInvitation</title>
<path fill="none" stroke="black" d="M494.229,-975.341C494.229,-931.837 494.229,-815.714 494.229,-745.587"/>
</g>
<!-- ActiveRecord::Base&#45;&gt;Session -->
<g id="edge8" class="edge"><title>ActiveRecord::Base&#45;&gt;Session</title>
<path fill="none" stroke="black" d="M517.126,-976.073C533.969,-962.906 556.271,-943.038 570.229,-921 606.399,-863.895 626.653,-787.741 636.758,-738.657"/>
</g>
<!-- ActiveRecord::Base&#45;&gt;Tag -->
<g id="edge9" class="edge"><title>ActiveRecord::Base&#45;&gt;Tag</title>
<path fill="none" stroke="black" d="M529.635,-977.146C546.286,-970.326 566.547,-962.594 585.229,-957 658.799,-934.973 705.913,-980.693 754.229,-921 819.242,-840.681 766.528,-558.599 754.229,-456 736.101,-304.767 761.815,-246.906 673.229,-123 658.865,-102.908 637.6,-86.7333 616.775,-74.407"/>
</g>
<!-- ActiveRecord::Base&#45;&gt;User -->
<g id="edge12" class="edge"><title>ActiveRecord::Base&#45;&gt;User</title>
<path fill="none" stroke="black" d="M472.176,-976.02C455.558,-962.681 433.159,-942.613 418.229,-921 415.2,-916.615 412.241,-912.119 409.352,-907.533"/>
</g>
<!-- ActiveRecord::Base&#45;&gt;UserNextStep -->
<g id="edge13" class="edge"><title>ActiveRecord::Base&#45;&gt;UserNextStep</title>
<path fill="none" stroke="black" d="M528.677,-977.183C545.468,-970.205 566.118,-962.332 585.229,-957 675.176,-931.906 719.648,-979.753 792.229,-921 850.471,-873.855 872.466,-784.708 880.607,-731.857"/>
</g>
</g>
</svg>
