<?xml version="1.0" encoding="UTF-8" standalone="no"?>
<!DOCTYPE svg PUBLIC "-//W3C//DTD SVG 1.1//EN"
 "http://www.w3.org/Graphics/SVG/1.1/DTD/svg11.dtd">
<!-- Generated by graphviz version 2.38.0 (20140413.2041)
 -->
<!-- Title: models_diagram Pages: 1 -->
<svg width="699pt" height="297pt"
 viewBox="0.00 0.00 699.36 297.00" xmlns="http://www.w3.org/2000/svg" xmlns:xlink="http://www.w3.org/1999/xlink">
<g id="graph0" class="graph" transform="scale(1 1) rotate(0) translate(4 293)">
<title>models_diagram</title>
<polygon fill="white" stroke="none" points="-4,4 -4,-293 695.359,-293 695.359,4 -4,4"/>
<!-- _diagram_info -->
<g id="node1" class="node"><title>_diagram_info</title>
<text text-anchor="start" x="14.1918" y="-274.6" font-family="Times,serif" font-size="13.00">Models diagram</text>
<text text-anchor="start" x="14.1918" y="-261.6" font-family="Times,serif" font-size="13.00">Date: Jun 17 2014 &#45; 09:28</text>
<text text-anchor="start" x="14.1918" y="-248.6" font-family="Times,serif" font-size="13.00">Migration version: 20140601194707</text>
<text text-anchor="start" x="14.1918" y="-235.6" font-family="Times,serif" font-size="13.00">Generated by RailRoady 1.1.1</text>
<text text-anchor="start" x="14.1918" y="-222.6" font-family="Times,serif" font-size="13.00">http://railroady.prestonlee.com</text>
</g>
<!-- Music -->
<g id="node2" class="node"><title>Music</title>
<ellipse fill="none" stroke="black" cx="68.6415" cy="-90" rx="32.4324" ry="18"/>
<text text-anchor="middle" x="68.6415" y="-85.8" font-family="Times,serif" font-size="14.00">Music</text>
</g>
<!-- Paperclip -->
<g id="node3" class="node"><title>Paperclip</title>
<polygon fill="none" stroke="black" stroke-dasharray="1,5" points="481.011,-270.5 412.272,-270.5 412.272,-234.5 481.011,-234.5 481.011,-270.5"/>
<text text-anchor="middle" x="446.642" y="-248.3" font-family="Times,serif" font-size="14.00">Paperclip</text>
</g>
<!-- Playlist -->
<g id="node4" class="node"><title>Playlist</title>
<ellipse fill="none" stroke="black" cx="36.6415" cy="-162" rx="36.7836" ry="18"/>
<text text-anchor="middle" x="36.6415" y="-157.8" font-family="Times,serif" font-size="14.00">Playlist</text>
</g>
<!-- Playlist&#45;&gt;Music -->
<g id="edge2" class="edge"><title>Playlist&#45;&gt;Music</title>
<path fill="none" stroke="#c5b724" d="M47.7435,-136.714C50.6069,-130.451 53.7019,-123.68 56.6102,-117.318"/>
<ellipse fill="none" stroke="#c5b724" cx="46.0509" cy="-140.417" rx="4.00002" ry="4.00002"/>
<polygon fill="#c5b724" stroke="#c5b724" points="56.8089,-116.884 65.0592,-109.66 58.8877,-112.336 60.9666,-107.789 60.9666,-107.789 60.9666,-107.789 58.8877,-112.336 56.8739,-105.918 56.8089,-116.884 56.8089,-116.884"/>
</g>
<!-- Pnsq -->
<g id="node5" class="node"><title>Pnsq</title>
<ellipse fill="none" stroke="black" cx="194.642" cy="-90" rx="27.1216" ry="18"/>
<text text-anchor="middle" x="194.642" y="-85.8" font-family="Times,serif" font-size="14.00">Pnsq</text>
</g>
<!-- Tag -->
<g id="node9" class="node"><title>Tag</title>
<ellipse fill="none" stroke="black" cx="368.642" cy="-18" rx="27" ry="18"/>
<text text-anchor="middle" x="368.642" y="-13.8" font-family="Times,serif" font-size="14.00">Tag</text>
</g>
<!-- Pnsq&#45;&gt;Tag -->
<g id="edge4" class="edge"><title>Pnsq&#45;&gt;Tag</title>
<path fill="none" stroke="#e60cf6" d="M227.053,-75.9608C258.358,-63.367 305.485,-44.408 336.648,-31.8711"/>
<polygon fill="#e60cf6" stroke="#e60cf6" points="226.666,-76.1164 215.709,-75.6739 222.028,-77.9825 217.389,-79.8487 217.389,-79.8487 217.389,-79.8487 222.028,-77.9825 219.069,-84.0236 226.666,-76.1164 226.666,-76.1164"/>
<polygon fill="#e60cf6" stroke="#e60cf6" points="336.887,-31.7749 347.844,-32.2174 341.526,-29.9088 346.164,-28.0426 346.164,-28.0426 346.164,-28.0426 341.526,-29.9088 344.485,-23.8678 336.887,-31.7749 336.887,-31.7749"/>
</g>
<!-- Relation -->
<g id="node6" class="node"><title>Relation</title>
<ellipse fill="none" stroke="black" cx="377.642" cy="-90" rx="40.1403" ry="18"/>
<text text-anchor="middle" x="377.642" y="-85.8" font-family="Times,serif" font-size="14.00">Relation</text>
</g>
<!-- RequestInvitation -->
<g id="node7" class="node"><title>RequestInvitation</title>
<ellipse fill="none" stroke="black" cx="312.642" cy="-162" rx="72.9653" ry="18"/>
<text text-anchor="middle" x="312.642" y="-157.8" font-family="Times,serif" font-size="14.00">RequestInvitation</text>
</g>
<!-- Session -->
<g id="node8" class="node"><title>Session</title>
<ellipse fill="none" stroke="black" cx="440.642" cy="-162" rx="37.2681" ry="18"/>
<text text-anchor="middle" x="440.642" y="-157.8" font-family="Times,serif" font-size="14.00">Session</text>
</g>
<!-- User -->
<g id="node10" class="node"><title>User</title>
<ellipse fill="none" stroke="black" cx="194.642" cy="-162" rx="27" ry="18"/>
<text text-anchor="middle" x="194.642" y="-157.8" font-family="Times,serif" font-size="14.00">User</text>
</g>
<!-- User&#45;&gt;Pnsq -->
<g id="edge10" class="edge"><title>User&#45;&gt;Pnsq</title>
<path fill="none" stroke="#8f6524" d="M194.642,-135.64C194.642,-130.063 194.642,-124.132 194.642,-118.476"/>
<ellipse fill="none" stroke="#8f6524" cx="194.642" cy="-139.697" rx="4" ry="4"/>
<polygon fill="#8f6524" stroke="#8f6524" points="194.642,-118.104 199.142,-108.104 194.642,-113.104 194.642,-108.104 194.642,-108.104 194.642,-108.104 194.642,-113.104 190.142,-108.104 194.642,-118.104 194.642,-118.104"/>
</g>
<!-- User&#45;&gt;Relation -->
<g id="edge11" class="edge"><title>User&#45;&gt;Relation</title>
<path fill="none" stroke="#8c0520" d="M223.22,-147.204C225.717,-146.09 228.216,-145.007 230.642,-144 265.982,-129.324 307.006,-114.73 336.721,-104.584"/>
<ellipse fill="none" stroke="#8c0520" cx="219.449" cy="-148.929" rx="4.00002" ry="4.00002"/>
<polygon fill="#8c0520" stroke="#8c0520" points="336.871,-104.533 347.787,-105.581 341.606,-102.926 346.341,-101.319 346.341,-101.319 346.341,-101.319 341.606,-102.926 344.895,-97.058 336.871,-104.533 336.871,-104.533"/>
</g>
<!-- UserNextStep -->
<g id="node11" class="node"><title>UserNextStep</title>
<ellipse fill="none" stroke="black" cx="631.642" cy="-162" rx="59.9357" ry="18"/>
<text text-anchor="middle" x="631.642" y="-157.8" font-family="Times,serif" font-size="14.00">UserNextStep</text>
</g>
<!-- ActiveRecord::Base -->
<g id="node12" class="node"><title>ActiveRecord::Base</title>
<ellipse fill="none" stroke="black" cx="312.642" cy="-252.5" rx="81.1422" ry="18"/>
<text text-anchor="middle" x="312.642" y="-248.3" font-family="Times,serif" font-size="14.00">ActiveRecord::Base</text>
</g>
<!-- ActiveRecord::Base&#45;&gt;Music -->
<g id="edge1" class="edge"><title>ActiveRecord::Base&#45;&gt;Music</title>
<path fill="none" stroke="black" d="M273.719,-236.604C232.45,-220.43 170.41,-194.918 149.642,-180 120.625,-159.158 94.232,-126.449 79.9043,-107.026"/>
</g>
<!-- ActiveRecord::Base&#45;&gt;Playlist -->
<g id="edge3" class="edge"><title>ActiveRecord::Base&#45;&gt;Playlist</title>
<path fill="none" stroke="black" d="M276.223,-236.239C259.712,-229.594 239.848,-221.977 221.642,-216 163.051,-196.765 146.697,-197.758 87.6415,-180 80.4913,-177.85 72.8295,-175.383 65.6742,-173.008"/>
</g>
<!-- ActiveRecord::Base&#45;&gt;Pnsq -->
<g id="edge5" class="edge"><title>ActiveRecord::Base&#45;&gt;Pnsq</title>
<path fill="none" stroke="black" d="M274.844,-236.445C231.468,-218.79 165.401,-190.591 158.642,-180 143.218,-155.834 164.771,-123.965 180.575,-105.653"/>
</g>
<!-- ActiveRecord::Base&#45;&gt;Relation -->
<g id="edge6" class="edge"><title>ActiveRecord::Base&#45;&gt;Relation</title>
<path fill="none" stroke="black" d="M350.694,-236.472C401.287,-216.407 484.619,-183.018 486.642,-180 495.549,-166.709 495.128,-157.564 486.642,-144 470.737,-118.581 438.765,-105.038 413.541,-98.0266"/>
</g>
<!-- ActiveRecord::Base&#45;&gt;RequestInvitation -->
<g id="edge7" class="edge"><title>ActiveRecord::Base&#45;&gt;RequestInvitation</title>
<path fill="none" stroke="black" d="M312.642,-234.436C312.642,-218.765 312.642,-195.666 312.642,-180.011"/>
</g>
<!-- ActiveRecord::Base&#45;&gt;Session -->
<g id="edge8" class="edge"><title>ActiveRecord::Base&#45;&gt;Session</title>
<path fill="none" stroke="black" d="M336.417,-235.061C360.42,-218.465 397.118,-193.093 419.954,-177.304"/>
</g>
<!-- ActiveRecord::Base&#45;&gt;Tag -->
<g id="edge9" class="edge"><title>ActiveRecord::Base&#45;&gt;Tag</title>
<path fill="none" stroke="black" d="M350.623,-236.394C366.906,-229.994 386.165,-222.522 403.642,-216 448.289,-199.338 477.178,-218.945 504.642,-180 547.236,-119.598 437.935,-54.2762 389.928,-29.4061"/>
</g>
<!-- ActiveRecord::Base&#45;&gt;User -->
<g id="edge12" class="edge"><title>ActiveRecord::Base&#45;&gt;User</title>
<path fill="none" stroke="black" d="M290.723,-235.061C267.929,-217.966 232.716,-191.556 211.846,-175.903"/>
</g>
<!-- ActiveRecord::Base&#45;&gt;UserNextStep -->
<g id="edge13" class="edge"><title>ActiveRecord::Base&#45;&gt;UserNextStep</title>
<path fill="none" stroke="black" d="M348.53,-236.126C365.108,-229.381 385.174,-221.716 403.642,-216 408.039,-214.639 520.5,-188.637 585.801,-173.569"/>
</g>
</g>
</svg>
